<svg width="100" height="100" xmlns="http://www.w3.org/2000/svg">
 <metadata id="metadata20">image/svg+xml</metadata>

 <g>
  <title>background</title>
  <rect fill="none" id="canvas_background" height="102" width="102" y="-1" x="-1"/>
 </g>
 <g>
  <title>Layer 1</title>
  <path stroke="null" id="path6" d="m50,0c-27.6125,0 -50,22.3875 -50,50s22.3875,50 50,50s50,-22.3875 50,-50s-22.3875,-50 -50,-50zm-16.125,38.75c0,1.0375 -0.8375,1.875 -1.875,1.875l-2.625,0l0,38.625l-3.75,0l0,-38.625l-2.625,0c-1.0375,0 -1.875,-0.8375 -1.875,-1.875l0,-13.5c0,-1.0375 0.8375,-1.875 1.875,-1.875l2.625,0l0,-2.625l3.75,0l0,2.625l2.625,0c1.0375,0 1.875,0.8375 1.875,1.875l0,13.5zm22.5,18c0,1.0375 -0.8375,1.875 -1.875,1.875l-2.625,0l0,20.625l-3.75,0l0,-20.625l-2.625,0c-1.0375,0 -1.875,-0.8375 -1.875,-1.875l0,-13.5c0,-1.0375 0.8375,-1.875 1.875,-1.875l2.625,0l0,-20.625l3.75,0l0,20.625l2.625,0c1.0375,0 1.875,0.8375 1.875,1.875l0,13.5zm22.5,18c0,1.0375 -0.8375,1.875 -1.875,1.875l-2.625,0l0,2.625l-3.75,0l0,-2.625l-2.625,0c-1.0375,0 -1.875,-0.8375 -1.875,-1.875l0,-13.5c0,-1.0375 0.8375,-1.875 1.875,-1.875l2.625,0l0,-38.625l3.75,0l0,38.625l2.625,0c1.0375,0 1.875,0.8375 1.875,1.875l0,13.5z"/>
 </g>
</svg>