<svg width="100" height="100" xmlns="http://www.w3.org/2000/svg">
 <title>download_1</title>

 <g>
  <title>background</title>
  <rect fill="none" id="canvas_background" height="102" width="102" y="-1" x="-1"/>
 </g>
 <g>
  <title>Layer 1</title>
  <g stroke="null" id="svg_1">
   <path stroke="null" id="svg_2" d="m94.794111,63.430117a4.970588,4.526536 0 0 0 -4.970588,4.526536l0,22.632679l-79.529404,0l0,-22.632679a4.970588,4.526536 0 0 0 -9.941175,0l0,23.266394a9.593234,8.736214 0 0 0 9.941175,8.419357l79.529404,0a9.593234,8.736214 0 0 0 9.941175,-8.419357l0,-23.266394a4.970588,4.526536 0 0 0 -4.970588,-4.526536z"/>
   <path stroke="null" id="svg_3" d="m46.430293,71.034697l0,0a5.964705,5.431843 0 0 0 1.292353,0.814776l0,0l0,0a4.970588,4.526536 0 0 0 2.336176,0.633715a4.970588,4.526536 0 0 0 1.888823,-0.362123l0.596471,-0.316858a5.616764,5.114985 0 0 0 0.894706,-0.543184l0,0l0,0l24.852939,-24.352762a4.970588,4.526536 0 1 0 -7.257058,-6.201354l-16.005293,15.707079l0,-51.828835a4.970588,4.526536 0 0 0 -9.941175,0l0,51.828835l-16.253822,-15.933406a4.970588,4.526536 0 1 0 -7.257058,6.201354l24.852939,24.352762z"/>
  </g>
 </g>
</svg>